<svg width="337" height="81" viewBox="0 0 337 81" fill="none" xmlns="http://www.w3.org/2000/svg">
<rect width="182" height="81" fill="#2966CC"/>
<rect x="181" y="1" width="155" height="79" stroke="#2966CC" stroke-width="2"/>
<path d="M34.048 39.896C36.5653 40.3653 38.6987 41.6453 40.448 43.736C42.1973 45.8267 43.072 48.2587 43.072 51.032C43.072 53.2933 42.496 55.3413 41.344 57.176C40.2347 58.968 38.592 60.3973 36.416 61.464C34.24 62.488 31.6373 63 28.608 63H13.12V18.264H28.16C32.6827 18.264 36.1173 19.3093 38.464 21.4C40.8533 23.4907 42.048 26.2 42.048 29.528C42.048 32.3013 41.3013 34.5627 39.808 36.312C38.3147 38.0187 36.3947 39.2133 34.048 39.896ZM17.6 38.04H28.032C31.0613 38.04 33.3867 37.336 35.008 35.928C36.672 34.4773 37.504 32.4933 37.504 29.976C37.504 27.5013 36.672 25.56 35.008 24.152C33.3867 22.744 30.9973 22.04 27.84 22.04H17.6V38.04ZM28.288 59.224C31.5307 59.224 34.048 58.456 35.84 56.92C37.6747 55.384 38.592 53.272 38.592 50.584C38.592 47.896 37.632 45.7627 35.712 44.184C33.8347 42.5627 31.296 41.752 28.096 41.752H17.6V59.224H28.288ZM55.7875 59.352H71.8515V63H51.3075V18.264H55.7875V59.352ZM98.341 63.448C94.2023 63.448 90.4477 62.488 87.077 60.568C83.7063 58.6053 81.0397 55.896 79.077 52.44C77.157 48.9413 76.197 44.9947 76.197 40.6C76.197 36.2053 77.157 32.28 79.077 28.824C81.0397 25.3253 83.7063 22.616 87.077 20.696C90.4477 18.7333 94.2023 17.752 98.341 17.752C102.522 17.752 106.298 18.7333 109.669 20.696C113.04 22.616 115.685 25.3253 117.605 28.824C119.525 32.28 120.485 36.2053 120.485 40.6C120.485 44.9947 119.525 48.9413 117.605 52.44C115.685 55.896 113.04 58.6053 109.669 60.568C106.298 62.488 102.522 63.448 98.341 63.448ZM98.341 59.544C101.669 59.544 104.656 58.776 107.301 57.24C109.946 55.704 112.037 53.5067 113.573 50.648C115.109 47.7467 115.877 44.3973 115.877 40.6C115.877 36.8027 115.109 33.4747 113.573 30.616C112.037 27.7573 109.946 25.56 107.301 24.024C104.656 22.488 101.669 21.72 98.341 21.72C95.013 21.72 92.0263 22.488 89.381 24.024C86.7357 25.56 84.645 27.7573 83.109 30.616C81.573 33.4747 80.805 36.8027 80.805 40.6C80.805 44.3973 81.573 47.7467 83.109 50.648C84.645 53.5067 86.7357 55.704 89.381 57.24C92.0263 58.776 95.013 59.544 98.341 59.544ZM163.883 31.32C162.603 28.376 160.64 26.072 157.995 24.408C155.392 22.7013 152.32 21.848 148.779 21.848C145.451 21.848 142.464 22.616 139.819 24.152C137.173 25.688 135.083 27.8853 133.547 30.744C132.011 33.56 131.243 36.8453 131.243 40.6C131.243 44.3547 132.011 47.6613 133.547 50.52C135.083 53.3787 137.173 55.576 139.819 57.112C142.464 58.648 145.451 59.416 148.779 59.416C151.893 59.416 154.688 58.7547 157.163 57.432C159.68 56.0667 161.685 54.1467 163.179 51.672C164.715 49.1547 165.589 46.232 165.803 42.904H146.987V39.256H170.539V42.52C170.325 46.4453 169.259 50.008 167.339 53.208C165.419 56.3653 162.837 58.8613 159.595 60.696C156.395 62.5307 152.789 63.448 148.779 63.448C144.64 63.448 140.885 62.488 137.515 60.568C134.144 58.6053 131.477 55.896 129.515 52.44C127.595 48.9413 126.635 44.9947 126.635 40.6C126.635 36.2053 127.595 32.28 129.515 28.824C131.477 25.3253 134.144 22.616 137.515 20.696C140.885 18.7333 144.64 17.752 148.779 17.752C153.557 17.752 157.739 18.9467 161.323 21.336C164.907 23.7253 167.509 27.0533 169.131 31.32H163.883Z" fill="white"/>
<path d="M193.456 40.6C193.456 36.1627 194.373 32.216 196.208 28.76C198.085 25.2613 200.645 22.5307 203.888 20.568C207.173 18.6053 210.843 17.624 214.896 17.624C220.016 17.624 224.325 18.8187 227.824 21.208C231.323 23.5973 233.883 26.9467 235.504 31.256H232.176C230.896 27.8427 228.763 25.1547 225.776 23.192C222.832 21.1867 219.205 20.184 214.896 20.184C211.44 20.184 208.304 21.016 205.488 22.68C202.672 24.3013 200.453 26.6693 198.832 29.784C197.211 32.856 196.4 36.4613 196.4 40.6C196.4 44.696 197.211 48.28 198.832 51.352C200.453 54.3813 202.672 56.728 205.488 58.392C208.304 60.056 211.44 60.888 214.896 60.888C219.205 60.888 222.832 59.9067 225.776 57.944C228.763 55.9387 230.896 53.2293 232.176 49.816H235.504C233.883 54.1253 231.323 57.4747 227.824 59.864C224.325 62.2533 220.016 63.448 214.896 63.448C210.843 63.448 207.173 62.488 203.888 60.568C200.645 58.6053 198.085 55.896 196.208 52.44C194.373 48.9413 193.456 44.9947 193.456 40.6ZM286.418 19.032V63H283.538V25.048L266.642 63H264.338L247.378 25.048V63H244.498V19.032H247.57L265.49 59.224L283.41 19.032H286.418ZM309.99 63.448C307.089 63.448 304.55 62.936 302.374 61.912C300.198 60.888 298.491 59.5013 297.254 57.752C296.059 56.0027 295.377 54.0613 295.206 51.928H298.214C298.555 54.2747 299.643 56.3653 301.478 58.2C303.355 60.0347 306.193 60.952 309.99 60.952C312.209 60.952 314.129 60.5467 315.75 59.736C317.414 58.9253 318.694 57.816 319.59 56.408C320.486 55 320.934 53.4427 320.934 51.736C320.934 49.56 320.401 47.832 319.334 46.552C318.31 45.272 317.009 44.312 315.43 43.672C313.894 43.032 311.803 42.3493 309.158 41.624C306.257 40.856 303.91 40.088 302.118 39.32C300.369 38.552 298.875 37.3787 297.638 35.8C296.443 34.1787 295.846 31.9813 295.846 29.208C295.846 27.0747 296.401 25.1333 297.51 23.384C298.662 21.592 300.283 20.184 302.374 19.16C304.465 18.136 306.875 17.624 309.606 17.624C313.574 17.624 316.774 18.6053 319.206 20.568C321.638 22.5307 323.089 24.9413 323.558 27.8H320.486C320.23 26.648 319.654 25.4747 318.758 24.28C317.905 23.0853 316.667 22.104 315.046 21.336C313.467 20.5253 311.569 20.12 309.35 20.12C306.363 20.12 303.846 20.952 301.798 22.616C299.75 24.2373 298.726 26.4133 298.726 29.144C298.726 31.32 299.259 33.0693 300.326 34.392C301.393 35.672 302.694 36.6533 304.23 37.336C305.809 37.976 307.921 38.6373 310.566 39.32C313.51 40.1307 315.835 40.92 317.542 41.688C319.291 42.4133 320.763 43.5867 321.958 45.208C323.195 46.7867 323.814 48.9413 323.814 51.672C323.814 53.6773 323.281 55.576 322.214 57.368C321.147 59.16 319.569 60.632 317.478 61.784C315.43 62.8933 312.934 63.448 309.99 63.448Z" fill="#2966CC"/>
</svg>
